<?xml version="1.0" encoding="utf-8"?>
<!-- Generator: Adobe Illustrator 22.0.1, SVG Export Plug-In . SVG Version: 6.00 Build 0)  -->
<svg version="1.1" id="logo_dark" xmlns="http://www.w3.org/2000/svg" xmlns:xlink="http://www.w3.org/1999/xlink" x="0px" y="0px"
	 viewBox="0 0 558.8 603" style="enable-background:new 0 0 558.8 603;" xml:space="preserve">
<style type="text/css">
	.st0{fill:#FFFFFF;}
	.st1{fill:#FF7B00;}
</style>
<g id="_x31__5_">
	<g>
		<g>
			<g id="Слой_3_9_">
				<g>
					<g>
						<path class="st0" d="M222.5,48.6C138.7,67.2,72.9,133,54.3,216.8C17.7,381.5,161.3,525,326,488.5
							c83.8-18.6,149.6-84.4,168.2-168.2C530.7,155.6,387.2,12.1,222.5,48.6z M423,378.1c-74.7,100.2-222.9,100.2-297.6,0
							c-48.3-64.8-48.3-154.3,0-219.1C200.1,58.8,348.3,58.8,423,159C471.3,223.8,471.3,313.3,423,378.1z"/>
					</g>
					<g>
						<path class="st0" d="M274.1,128.5c-76.2,0.1-139.9,63.8-140,140C134,346,196.8,408.8,274.3,408.7c76.2-0.1,139.9-63.8,140-140
							C414.3,191.2,351.5,128.4,274.1,128.5z M346.1,340.5c-39.7,39.7-104.1,39.7-143.8,0s-39.7-104.1,0-143.8s104.1-39.7,143.8,0
							S385.8,300.8,346.1,340.5z"/>
					</g>
					<g>
						<path class="st0" d="M302.4,214.8c-29.7-15.6-66.4-4.1-81.9,25.6c-15.6,29.7-4.1,66.4,25.6,81.9c29.7,15.6,66.4,4.1,81.9-25.6
							C343.5,267.1,332.1,230.4,302.4,214.8z M278.1,301.3c-18.1,2.2-34.5-10.8-36.7-28.9s10.8-34.5,28.9-36.7s34.5,10.8,36.7,28.9
							S296.2,299.2,278.1,301.3z"/>
					</g>
					<g>
						<polygon class="st1" points="391.2,423.6 472.8,424.2 551.3,528.7 472.1,522.8 457.5,600.2 375.9,499.1 						"/>
						<path class="st1" d="M418.9,487.5l-144.5-186l-0.2-32.9l31.2,10.8L449,464.2c6.4,8.3,4.9,20.3-3.4,26.7l0,0
							C437.4,497.3,425.4,495.8,418.9,487.5z"/>
					</g>
				</g>
			</g>
		</g>
	</g>
</g>
</svg>
