<?xml version="1.0" encoding="utf-8"?>
<!-- Generator: Adobe Illustrator 22.0.1, SVG Export Plug-In . SVG Version: 6.00 Build 0)  -->
<svg version="1.1" id="logo_dark" xmlns="http://www.w3.org/2000/svg" xmlns:xlink="http://www.w3.org/1999/xlink" x="0px" y="0px"
	 viewBox="0 0 2338 906" style="enable-background:new 0 0 2338 906;" xml:space="preserve">
<style type="text/css">
	.st0{fill:#15395A;}
	.st1{fill:#FF7B00;}
</style>
<g id="_x31__5_">
	<g>
		<g>
			<g id="Слой_3_9_">
				<g>
					<g>
						<path class="st0" d="M414.5,204.6c-83.8,18.6-149.6,84.4-168.2,168.2C209.7,537.5,353.3,681,518,644.5
							c83.8-18.6,149.6-84.4,168.2-168.2C722.7,311.6,579.2,168.1,414.5,204.6z M615,534.1c-74.7,100.2-222.9,100.2-297.6,0
							c-48.3-64.8-48.3-154.3,0-219.1c74.7-100.2,222.9-100.2,297.6,0C663.3,379.8,663.3,469.3,615,534.1z"/>
					</g>
					<g>
						<path class="st0" d="M466.1,284.5c-76.2,0.1-139.9,63.8-140,140C326,502,388.8,564.8,466.3,564.7c76.2-0.1,139.9-63.8,140-140
							C606.3,347.2,543.5,284.4,466.1,284.5z M538.1,496.5c-39.7,39.7-104.1,39.7-143.8,0s-39.7-104.1,0-143.8s104.1-39.7,143.8,0
							S577.8,456.8,538.1,496.5z"/>
					</g>
					<g>
						<path class="st0" d="M494.4,370.8c-29.7-15.6-66.4-4.1-81.9,25.6c-15.6,29.7-4.1,66.4,25.6,81.9c29.7,15.6,66.4,4.1,81.9-25.6
							C535.5,423.1,524.1,386.4,494.4,370.8z M470.1,457.3c-18.1,2.2-34.5-10.8-36.7-28.9c-2.2-18.1,10.8-34.5,28.9-36.7
							c18.1-2.2,34.5,10.8,36.7,28.9S488.2,455.2,470.1,457.3z"/>
					</g>
					<g>
						<polygon class="st1" points="583.2,579.6 664.8,580.2 743.3,684.7 664.1,678.8 649.5,756.2 567.9,655.1 						"/>
						<path class="st1" d="M610.9,643.5l-144.5-186l-0.2-32.9l31.2,10.8L641,620.2c6.4,8.3,4.9,20.3-3.4,26.7l0,0
							C629.4,653.3,617.4,651.8,610.9,643.5z"/>
					</g>
				</g>
			</g>
		</g>
		<g>
			<g>
				<path class="st0" d="M892.3,620.6c-11.3,10.8-22.6,18.8-33.9,23.8s-23.4,7.5-36.4,7.5c-24.8,0-44.4-7.2-58.7-21.5
					c-14.3-14.3-21.5-33.9-21.5-58.7V420.6h45.9v139.6c0,18.4,3.9,32,11.7,40.8c7.8,8.8,19.9,13.2,36.4,13.2
					c11.7,0,21.9-2.3,30.7-6.8c8.8-4.5,17.4-12,25.8-22.6V420.6h45.4v227.8h-45.4V620.6z"/>
			</g>
			<g>
				<path class="st0" d="M1202.3,624.3c-15.1,9.7-30.7,17-46.7,21.8s-32.6,7.3-49.7,7.3c-36,0-64.7-11.1-86.2-33.4
					c-21.5-22.3-32.2-52-32.2-89.1c0-34,10.3-61.6,30.9-82.8s47.5-31.8,80.8-31.8c32.9,0,58.9,10.8,78.2,32.3
					c19.2,21.5,28.8,50.6,28.8,87.3v6.7h-170.6c1.3,21.5,8.4,38.3,21.2,50.4c12.8,12.1,30,18.1,51.5,18.1c14.5,0,29.5-2.7,45.2-8
					s31.9-13.4,48.7-24.3L1202.3,624.3L1202.3,624.3z M1035.6,510.2h120.6c-1.5-16.6-7.5-29.9-18-39.9s-23.7-15-39.5-15
					c-17.4,0-31.5,4.6-42.2,13.9C1045.9,478.4,1038.9,492.1,1035.6,510.2z"/>
			</g>
			<g>
				<path class="st0" d="M1254.5,633v-48.6c13.6,9,26.8,15.9,39.5,20.7s24.2,7.2,34.8,7.2c11.7,0,20.8-2.2,27.5-6.5
					c6.7-4.4,10-10.3,10-17.9c0-9.5-12.4-20.5-37.2-32.8c-7.2-3.6-12.8-6.5-16.8-8.6c-21.2-10.8-35.8-21.3-43.6-31.4
					s-11.8-22.5-11.8-37.1c0-19.1,6.8-34.2,20.5-45.4c13.6-11.2,32.4-16.8,56.2-16.8c12.8,0,25.2,1.5,37,4.6
					c11.8,3,23.4,7.8,34.8,14.2V479c-14-7.7-26.8-13.4-38.3-17.1c-11.6-3.7-22.6-5.5-32.9-5.5c-9.5,0-16.9,1.6-22.1,4.9
					c-5.2,3.3-7.8,8.1-7.8,14.3c0,11.5,15.9,25.1,47.6,40.7l4.2,2c24.8,12.5,41,23.5,48.6,32.9c7.6,9.5,11.3,21.4,11.3,35.9
					c0,20.1-7.5,36.1-22.6,48.1c-15,12-35,18-59.8,18c-14.3,0-27.9-1.6-40.8-4.9C1279.7,644.7,1267,639.7,1254.5,633z"/>
			</g>
			<g>
				<path class="st0" d="M1610.1,641.3c-7.1,3.9-14.7,6.9-22.8,8.8c-8.1,1.9-16.9,2.8-26.3,2.8c-25.6,0-43.7-6.1-54.1-18.2
					c-10.4-12.2-15.7-34.4-15.7-66.6v-108h-38.7v-4.4l79.6-88h5.2v53h71.3v39.5h-71.3v104.5c0,18.9,2.3,31.1,7,36.6
					c4.7,5.5,13.4,8.3,26.3,8.3c6.9,0,13.6-0.9,20.2-2.7c6.6-1.8,13-4.6,19.2-8.4L1610.1,641.3L1610.1,641.3z"/>
			</g>
			<g>
				<path class="st1" d="M1655.9,353.6c0-7.2,2.5-13.3,7.4-18.2c4.9-4.9,11-7.4,18.2-7.4c7.2,0,13.3,2.5,18.2,7.4s7.4,11,7.4,18.2
					s-2.5,13.3-7.4,18.2c-4.9,4.9-11,7.4-18.2,7.4c-7.2,0-13.3-2.5-18.2-7.4C1658.4,366.9,1655.9,360.8,1655.9,353.6z"/>
				<rect x="1658.9" y="420.7" class="st0" width="45.4" height="232.3"/>
			</g>
			<g>
				<path class="st0" d="M1996.3,603.6l-95.9-183h50.5l70.3,133.4l65.6-133.4h49.6l-169.2,342.5h-49.6L1996.3,603.6z"/>
			</g>
			<g>
				<rect x="1784" y="420.7" class="st0" width="46.8" height="232.3"/>
				<path class="st0" d="M1830.8,648.5H1784V460.1h-29.8v-39.5h29.8v-20.7c0-19.7,0.8-34,2.5-42.9c1.6-8.9,4.5-16.6,8.6-23.2
					c6.6-10.7,15.7-19,27.2-24.9c11.6-5.9,24.5-8.9,38.8-8.9c4.4,0,9.5,0.4,15.2,1.2c5.7,0.8,12.8,2.2,21.3,4.2v39.9
					c-6.4-1.3-12-2.3-16.6-3c-4.7-0.7-8.8-1-12.2-1c-13.8,0-23.6,3.8-29.3,11.5c-5.8,7.6-8.6,21-8.6,40.1v27.6h30.3V460h-30.3
					L1830.8,648.5L1830.8,648.5z"/>
			</g>
		</g>
	</g>
</g>
</svg>
